<svg xmlns="http://www.w3.org/2000/svg" version="1.1" xmlns:xlink="http://www.w3.org/1999/xlink" xmlns:svgjs="http://svgjs.dev/svgjs" width="2000" height="505" viewBox="0 0 2000 505"><g transform="matrix(1,0,0,1,-1.2121182454692416,0.3619055873889465)"><svg viewBox="0 0 396 100" data-background-color="#ffcf31" preserveAspectRatio="xMidYMid meet" height="505" width="2000" xmlns="http://www.w3.org/2000/svg" xmlns:xlink="http://www.w3.org/1999/xlink"><g id="tight-bounds" transform="matrix(1,0,0,1,0.2399994126029128,-0.07166447275028531)"><svg viewBox="0 0 395.52 100.14332894550054" height="100.14332894550054" width="395.52"><g><svg viewBox="0 0 395.52 100.14332894550054" height="100.14332894550054" width="395.52"><g transform="matrix(1,0,0,1,0,61.892594839423964)"><svg viewBox="0 0 395.52 38.25073410607657" height="38.25073410607657" width="395.52"><g id="textblocktransform"><svg viewBox="0 0 395.52 38.25073410607657" height="38.25073410607657" width="395.52" id="textblock"><g><svg viewBox="0 0 395.52 38.25073410607657" height="38.25073410607657" width="395.52"><g transform="matrix(1,0,0,1,0,0)"><svg width="395.52" viewBox="1.2999999523162842 -40.29999923706055 427.0299987792969 41.29999923706055" height="38.25073410607657" data-palette-color="#111111"><path d="M56.6-3.6L54.75 0.05 36.3 0.05 36.3-3.15 41-6.85 41-29.6 28.9 0.05 24.1 0.05 11.65-30.05 11.65-5.75 17.35-3.6 15.5 0.05 2.2 0.05 2.2-3.15 6.9-6.85 6.9-33.45 1.3-35.7 3.1-39.3 18.15-39.3 29.25-12.6 40.1-39.3 55.7-39.3 55.7-36.15 50.95-32.45 50.95-5.05 56.6-3.6ZM104.7-3.65L102.9 0 83.25 0 83.25-3.2 88.95-6.4 86.15-13.25 71.1-13.25 68.7-7.35 76.05-3.65 74.25 0 57.8 0 57.8-3.2 63.45-7.4 75.85-37.7 85.55-40.25 99.55-6.1 104.7-3.65ZM84.45-17.5L78.65-31.75 72.85-17.5 84.45-17.5ZM141.15-40.2L141.15-26.1 138-24.75 130.9-35 126.7-35 126.7-5.05 132.35-3.65 130.55 0 112.1 0 112.1-3.2 116.8-6.9 116.8-35 112.7-35 105.6-24.75 102.5-26.1 102.5-40.2 106.35-39.3 137.25-39.3 141.15-40.2ZM168.79-40.3Q171.79-40.3 175.79-39.55 179.79-38.8 181.64-37.95L181.64-37.95 181.64-27.05 176.09-27.05Q172.34-34.05 165.89-34.05L165.89-34.05Q163.29-34.05 161.14-32.38 158.99-30.7 157.74-27.75 156.49-24.8 156.49-21.15L156.49-21.15Q156.49-17 157.74-13.58 158.99-10.15 161.57-8.13 164.14-6.1 167.94-6.1L167.94-6.1Q172.59-6.1 181.14-10.7L181.14-10.7 183.29-7.25 174.09-0.1Q171.79 0.55 169.69 0.78 167.59 1 165.14 1L165.14 1Q159.44 1 155.02-1.55 150.59-4.1 148.14-8.58 145.69-13.05 145.69-18.75L145.69-18.75Q145.69-24.6 149.34-29.58 152.99-34.55 158.44-37.43 163.89-40.3 168.79-40.3L168.79-40.3ZM233.54-3.65L231.74 0 213.29 0 213.29-3.2 217.99-7.25 217.99-17.45 201.89-17.45 201.89-5.2 207.54-3.65 205.74 0 187.29 0 187.29-3.2 191.99-7.25 191.99-34.15 186.39-35.7 188.19-39.3 206.64-39.3 206.64-36.15 201.89-32.05 201.89-21.7 217.99-21.7 217.99-34.15 212.39-35.7 214.19-39.3 232.64-39.3 232.64-36.15 227.89-32.05 227.89-5.2 233.54-3.65ZM291.44-3.6L289.59 0.05 271.14 0.05 271.14-3.15 275.84-6.85 275.84-29.6 263.74 0.05 258.94 0.05 246.49-30.05 246.49-5.75 252.19-3.6 250.34 0.05 237.04 0.05 237.04-3.15 241.74-6.85 241.74-33.45 236.14-35.7 237.94-39.3 252.99-39.3 264.09-12.6 274.94-39.3 290.54-39.3 290.54-36.15 285.79-32.45 285.79-5.05 291.44-3.6ZM339.54-3.65L337.74 0 318.08 0 318.08-3.2 323.79-6.4 320.99-13.25 305.94-13.25 303.54-7.35 310.88-3.65 309.08 0 292.63 0 292.63-3.2 298.29-7.4 310.69-37.7 320.38-40.25 334.38-6.1 339.54-3.65ZM319.29-17.5L313.49-31.75 307.69-17.5 319.29-17.5ZM355.93-5.2L361.58-3.65 359.78 0 341.33 0 341.33-3.2 346.03-7.25 346.03-34.15 340.43-35.7 342.23-39.3 360.68-39.3 360.68-36.15 355.93-32.05 355.93-5.2ZM384.33-3.65L382.53 0 371.43 0 357.58-19.7 371.73-32.2 365.88-35.7 367.68-39.3 383.18-39.3 383.18-36.15 367.38-22.15 378.98-6.1 384.33-3.65ZM428.33-3.7L426.48-0.05 415.18-0.05 405.98-17.2 403.83-18.5 405.18-21.2 407.38-21.2Q409.83-21.2 411.25-22.85 412.68-24.5 412.68-27.45L412.68-27.45Q412.68-30.8 410.91-32.93 409.13-35.05 405.73-35.05L405.73-35.05Q403.58-35.05 401.78-33.8L401.78-33.8 401.78-5.25 407.43-3.7 405.63-0.05 387.18-0.05 387.18-3.25 391.88-7.3 391.88-34.25 386.28-35.75 388.08-39.35 397.13-39.35Q401.38-39.35 405.58-39.65L405.58-39.65Q408.58-39.85 410.03-39.85L410.03-39.85Q413.98-39.85 417.06-38.48 420.13-37.1 421.81-34.73 423.48-32.35 423.48-29.4L423.48-29.4Q423.48-25.95 420.48-22.98 417.48-20 413.03-18.4L413.03-18.4 417.23-17.25 423.33-5.95 428.33-3.7Z" opacity="1" transform="matrix(1,0,0,1,0,0)" fill="#111111" class="undefined-text-0" data-fill-palette-color="primary" id="text-0"></path></svg></g></svg></g></svg></g></svg></g><g transform="matrix(1,0,0,1,154.35337529108443,0)"><svg viewBox="0 0 86.81324941783112 52.86251453459783" height="52.86251453459783" width="86.81324941783112"><g><svg xmlns="http://www.w3.org/2000/svg" xmlns:xlink="http://www.w3.org/1999/xlink" version="1.1" x="8" y="0" viewBox="0.0004582405090332031 0 100.00054931640625 74.65100860595703" enable-background="new 0 0 100.001 74.65" xml:space="preserve" width="70.81324941783112" height="52.86251453459783" class="icon-icon-0" data-fill-palette-color="accent" id="icon-0"><g fill="#111111" data-fill-palette-color="accent"><path d="M32.13 63.808c2.649-1.998 6.436-1.471 8.434 1.192 1.997 2.678 1.457 6.45-1.207 8.434-2.663 2.012-6.45 1.471-8.434-1.192C28.926 69.578 29.467 65.791 32.13 63.808z" fill="#111111" data-fill-palette-color="accent"></path><path d="M35.348 61.394c1.831-1.387 7.421-1.816 7.421-1.816l3.62 4.827c0 0-1.97 5.243-3.814 6.63-1.623 1.207-3.218 2.399-3.218 2.399l-7.227-9.626C32.13 63.808 33.739 62.601 35.348 61.394z" fill="#111111" data-fill-palette-color="accent"></path></g><polygon points="96.382,19.42 100.001,24.247 47.985,63.197 44.378,58.384 " fill="#111111" data-fill-palette-color="accent"></polygon><path d="M30.715 74.641c-8.031-8.031-1.47-19.059 8.794-33.291C49.747 27.118 46.084 4.037 19.383 0c3.287 6.229 9.89 16.84-11.999 34.761-9.848 9.099-8.835 19.808-2.857 27.839C9.839 69.758 22.684 73.643 30.715 74.641z" fill="#111111" data-fill-palette-color="accent"></path></svg></g></svg></g><g><rect width="154.35337529108443" height="3.4494906764435824" y="48.41302385815425" x="241.16662470891555" fill="#111111" data-fill-palette-color="accent"></rect><rect width="154.35337529108443" height="3.4494906764435824" y="48.41302385815425" x="0" fill="#111111" data-fill-palette-color="accent"></rect><rect width="154.35337529108443" height="3.4494906764435824" y="41.514042505267085" x="241.16662470891555" fill="#111111" data-fill-palette-color="accent"></rect><rect width="154.35337529108443" height="3.4494906764435824" y="41.514042505267085" x="0" fill="#111111" data-fill-palette-color="accent"></rect></g></svg></g><defs></defs></svg><rect width="395.52" height="100.14332894550054" fill="none" stroke="none" visibility="hidden"></rect></g></svg></g></svg>